<svg id="svg" version="1.1" width="399" height="399" xmlns="http://www.w3.org/2000/svg" xmlns:xlink="http://www.w3.org/1999/xlink" style="display: block;">
	 <defs>
        <linearGradient id="skyGradient" x1="100%" y1="100%">
          <stop offset="0%" stop-color="lightblue" stop-opacity=".5">
            <animate attributeName="stop-color" values="#FFF;#AAA;red;black;red;red;purple;lightblue" dur="14s" repeatCount="indefinite" />
          </stop>
          <stop offset="100%" stop-color="lightblue" stop-opacity=".5">
            <animate attributeName="stop-color" values="lightblue;orange;purple;yellow;white;skyblue;#999;lightblue" dur="5s" repeatCount="indefinite" />
            <animate attributeName="offset" values=".95;.80;.60;.40;.20;0;.20;.40;.60;.80;.95" dur="14s" repeatCount="indefinite" />    
          </stop>
        </linearGradient>
      </defs>
         <g id="svgg"><path id="path0" d="M203.883 2.239 C 203.345 3.470,202.905 4.727,202.905 5.032 C 202.904 5.337,202.301 6.862,201.564 8.420 C 200.827 9.978,200.223 11.726,200.223 12.304 C 200.223 12.882,200.022 13.479,199.777 13.631 C 199.531 13.783,199.330 14.398,199.330 14.998 C 199.330 15.598,199.155 16.089,198.941 16.089 C 198.727 16.089,198.306 17.045,198.007 18.212 C 197.707 19.380,196.886 21.642,196.183 23.240 C 195.480 24.838,194.702 27.050,194.454 28.156 C 194.206 29.263,193.598 31.374,193.102 32.849 C 192.606 34.324,192.196 35.940,192.190 36.440 C 192.180 37.276,190.887 41.447,189.978 43.575 C 189.768 44.067,189.264 45.777,188.858 47.374 C 188.451 48.972,187.603 51.648,186.972 53.322 C 185.338 57.654,186.581 57.829,189.463 53.672 C 190.245 52.543,191.327 50.982,191.867 50.203 C 192.407 49.424,193.199 48.689,193.626 48.570 C 194.053 48.452,194.601 47.832,194.844 47.194 C 195.242 46.146,195.566 46.001,197.413 46.040 C 197.588 46.044,197.680 46.798,197.618 47.716 C 197.557 48.634,197.735 50.492,198.015 51.844 C 199.371 58.393,199.358 58.263,198.720 58.902 C 198.195 59.426,198.030 59.307,197.611 58.107 C 196.841 55.897,195.107 56.341,195.020 58.771 C 194.955 60.614,197.186 64.768,198.255 64.793 C 199.695 64.827,200.018 66.353,200.009 73.071 C 200.000 80.015,199.799 80.683,198.101 79.414 C 196.857 78.485,197.543 81.410,198.883 82.750 C 200.085 83.953,200.223 84.376,200.217 86.850 C 200.208 90.363,200.014 90.615,197.356 90.553 C 195.957 90.521,195.091 90.706,194.972 91.061 C 194.870 91.369,194.433 91.620,194.001 91.620 C 193.210 91.620,192.179 93.303,192.179 94.594 C 192.179 95.089,192.405 95.193,192.961 94.952 C 195.841 93.702,199.204 94.899,200.053 97.477 C 200.328 98.312,200.981 99.214,201.504 99.482 C 202.453 99.968,202.452 99.971,201.340 100.478 C 200.460 100.879,200.223 101.317,200.223 102.545 C 200.223 103.708,199.969 104.234,199.218 104.623 C 197.750 105.382,196.236 107.334,196.217 108.492 C 196.199 109.656,196.532 109.726,197.739 108.813 C 198.800 108.010,200.203 107.956,200.281 108.715 C 200.312 109.022,200.397 109.676,200.469 110.168 C 200.541 110.659,200.720 112.268,200.865 113.743 C 201.011 115.218,201.257 117.406,201.412 118.605 C 201.639 120.362,201.551 120.866,200.958 121.197 C 200.554 121.424,200.223 121.876,200.223 122.203 C 200.223 122.529,199.593 123.058,198.823 123.377 C 196.798 124.215,194.860 125.977,194.860 126.979 C 194.860 127.793,194.938 127.804,196.179 127.162 C 198.542 125.940,200.318 126.486,199.388 128.148 C 199.047 128.757,199.289 129.342,200.481 130.797 C 201.456 131.987,202.011 133.143,202.011 133.983 L 202.011 135.302 196.616 136.319 C 191.334 137.314,191.226 137.358,191.490 138.409 C 191.692 139.216,191.438 139.804,190.468 140.774 L 189.177 142.065 189.225 140.418 C 189.269 138.939,189.148 138.756,188.045 138.630 C 187.369 138.552,186.816 138.703,186.816 138.965 C 186.816 139.656,186.094 139.549,185.283 138.739 C 184.501 137.956,184.320 134.739,185.034 134.298 C 186.898 133.146,187.373 129.162,185.648 129.162 C 184.922 129.162,184.396 128.730,179.187 123.847 C 175.706 120.584,174.937 120.372,174.152 122.458 C 174.014 122.827,173.966 122.189,174.046 121.040 C 174.178 119.166,174.039 118.803,172.690 117.496 C 170.699 115.566,170.699 115.566,171.463 122.011 C 172.079 127.209,172.048 131.595,171.362 136.201 C 171.079 138.104,172.927 139.247,173.531 137.542 C 173.664 137.167,174.091 137.350,174.828 138.101 C 175.433 138.715,176.567 139.560,177.349 139.979 C 179.233 140.988,179.267 142.531,177.430 143.616 C 176.693 144.052,176.089 144.598,176.089 144.830 C 176.089 145.062,175.725 145.251,175.279 145.251 C 174.834 145.251,173.891 145.855,173.184 146.592 C 172.478 147.330,171.728 147.933,171.519 147.933 C 171.309 147.933,170.356 148.731,169.400 149.706 C 166.745 152.414,165.499 150.993,165.393 145.140 C 165.363 143.473,165.353 143.464,163.464 143.449 C 160.959 143.431,160.472 143.006,158.359 138.994 C 157.371 137.117,157.666 136.314,160.301 133.721 C 162.954 131.110,162.900 130.320,160.159 131.621 C 157.294 132.980,154.007 132.095,150.926 129.135 C 147.896 126.224,148.778 125.612,154.442 126.695 C 158.098 127.395,160.000 127.231,160.000 126.217 C 160.000 125.880,159.481 125.473,158.848 125.314 C 156.936 124.835,153.410 122.991,152.775 122.140 C 152.447 121.700,151.022 120.462,149.609 119.387 C 148.196 118.312,147.039 117.262,147.039 117.052 C 147.039 116.842,146.479 116.381,145.794 116.027 C 145.110 115.673,144.260 114.843,143.906 114.181 C 143.228 112.915,139.486 112.714,139.084 113.923 C 138.994 114.193,138.701 114.413,138.432 114.413 C 138.164 114.413,138.382 113.948,138.917 113.379 C 139.451 112.810,139.888 112.122,139.888 111.850 C 139.888 111.264,134.997 107.709,134.190 107.709 C 133.883 107.709,133.631 107.523,133.631 107.295 C 133.631 107.068,132.475 106.323,131.061 105.641 C 129.648 104.958,128.391 104.285,128.268 104.145 C 127.723 103.523,125.558 102.346,124.960 102.346 C 124.597 102.346,123.640 101.743,122.833 101.006 C 122.026 100.268,121.219 99.665,121.040 99.665 C 120.861 99.665,119.821 99.061,118.729 98.324 C 117.636 97.587,116.464 96.983,116.124 96.983 C 115.784 96.983,114.964 96.365,114.301 95.609 C 113.150 94.298,112.179 94.178,112.179 95.346 C 112.179 95.645,112.732 96.428,113.408 97.086 C 115.937 99.547,119.841 104.908,120.410 106.700 C 120.572 107.210,120.981 107.733,121.320 107.863 C 121.658 107.993,122.453 109.130,123.086 110.390 C 123.718 111.649,124.540 112.984,124.911 113.355 C 125.283 113.726,125.587 114.337,125.587 114.712 C 125.587 115.086,125.887 115.927,126.254 116.579 C 126.621 117.232,127.318 118.721,127.802 119.888 C 128.613 121.841,130.503 123.014,130.503 121.564 C 130.503 121.318,130.719 121.117,130.982 121.117 C 131.246 121.117,131.045 121.647,130.535 122.295 C 129.335 123.821,129.288 123.561,131.620 128.317 C 132.726 130.573,133.631 132.785,133.631 133.233 C 133.631 134.198,135.004 137.207,135.444 137.207 C 135.612 137.207,136.002 138.106,136.309 139.205 C 136.617 140.304,137.347 141.851,137.932 142.644 C 138.516 143.436,138.994 144.266,138.994 144.487 C 138.994 145.108,140.790 147.486,141.259 147.486 C 141.815 147.486,141.785 145.356,141.167 140.932 C 140.486 136.054,140.737 135.445,142.789 137.010 C 143.652 137.668,144.358 138.484,144.358 138.824 C 144.358 139.164,144.585 139.441,144.862 139.441 C 145.222 139.441,145.283 140.689,145.076 143.799 C 144.737 148.890,145.163 150.184,146.586 148.380 C 147.070 147.765,147.471 146.934,147.476 146.533 C 147.485 145.882,148.670 145.274,149.963 145.257 C 150.219 145.254,151.175 145.955,152.087 146.816 C 152.999 147.676,153.928 148.380,154.152 148.380 C 154.711 148.380,155.225 151.699,154.850 152.883 C 154.581 153.729,154.300 153.821,152.579 153.627 C 150.352 153.376,149.990 154.012,151.501 155.523 C 152.221 156.243,152.757 156.359,154.360 156.139 C 156.140 155.895,156.407 155.983,157.100 157.041 C 157.523 157.685,158.147 158.212,158.487 158.212 C 159.222 158.212,159.230 158.149,158.683 156.712 C 157.985 154.874,159.067 154.447,161.034 155.784 C 162.908 157.058,163.035 157.467,161.820 158.318 C 161.347 158.650,160.711 159.466,160.408 160.131 C 160.105 160.796,159.701 161.341,159.511 161.341 C 159.322 161.341,159.039 161.742,158.884 162.232 C 158.728 162.722,158.362 163.383,158.071 163.700 C 157.780 164.018,157.226 164.874,156.840 165.603 C 155.411 168.301,152.443 166.749,152.416 163.290 C 152.388 159.602,147.931 158.001,146.491 161.162 C 145.959 162.328,144.358 162.642,144.358 161.580 C 144.358 160.553,143.090 160.143,138.994 159.848 C 136.905 159.697,134.441 159.442,133.520 159.281 C 131.583 158.944,131.288 159.612,132.715 161.102 C 134.762 163.239,136.313 165.070,136.313 165.349 C 136.313 165.514,136.916 166.325,137.654 167.151 C 138.391 167.977,138.994 168.930,138.994 169.269 C 138.994 169.608,139.195 169.761,139.439 169.610 C 139.684 169.459,140.135 169.899,140.442 170.589 C 140.748 171.279,141.371 172.246,141.825 172.737 C 142.279 173.229,143.057 174.486,143.553 175.531 C 144.621 177.778,145.620 177.955,146.683 176.087 C 147.371 174.878,147.662 174.749,149.700 174.749 C 152.297 174.749,152.638 175.687,151.249 179.012 C 150.804 180.076,150.646 181.256,150.822 182.195 C 150.976 183.016,150.924 183.687,150.707 183.687 C 149.965 183.687,149.274 185.960,149.274 188.401 C 149.274 191.134,148.200 191.784,146.855 189.865 C 145.985 188.623,143.985 187.797,142.647 188.127 C 141.613 188.382,141.615 188.390,142.982 189.401 C 143.975 190.135,144.358 190.783,144.358 191.729 C 144.358 192.632,144.671 193.209,145.362 193.579 C 145.981 193.910,146.153 194.187,145.809 194.302 C 145.502 194.404,144.410 193.822,143.382 193.008 C 141.747 191.713,141.068 191.489,137.979 191.223 C 135.396 191.001,134.187 190.684,133.480 190.041 C 131.476 188.218,130.850 188.146,129.179 189.543 C 127.837 190.666,127.264 190.838,124.858 190.838 C 120.310 190.838,119.451 189.838,122.027 187.543 C 122.773 186.878,123.264 186.141,123.118 185.904 C 122.336 184.639,118.808 186.191,117.044 188.577 C 115.888 190.140,114.860 190.363,114.860 189.050 C 114.860 187.926,114.367 187.925,112.525 189.049 C 107.446 192.145,109.923 186.543,115.468 182.392 C 119.140 179.643,118.205 178.993,113.578 181.075 C 111.113 182.185,101.270 185.475,100.417 185.475 C 100.065 185.475,98.897 185.961,97.822 186.555 C 96.746 187.149,94.986 187.868,93.910 188.152 C 92.835 188.436,90.924 189.138,89.665 189.712 C 88.405 190.286,86.857 190.870,86.224 191.009 C 85.592 191.148,84.385 191.725,83.543 192.291 C 82.700 192.856,81.106 193.597,80.000 193.937 C 78.894 194.277,77.568 194.808,77.055 195.118 C 76.541 195.428,75.236 195.919,74.156 196.210 L 72.191 196.739 73.749 197.579 C 74.606 198.040,76.412 198.752,77.763 199.161 C 79.114 199.569,80.970 200.378,81.888 200.957 C 82.806 201.537,83.740 202.011,83.962 202.011 C 84.185 202.011,84.943 202.312,85.647 202.679 C 86.351 203.046,87.335 203.348,87.834 203.349 C 88.332 203.351,89.136 203.622,89.621 203.952 C 91.034 204.915,93.357 205.584,93.648 205.113 C 94.073 204.425,94.650 204.626,95.796 205.861 C 96.392 206.504,97.958 207.409,99.278 207.873 C 100.597 208.337,102.883 209.135,104.358 209.645 C 105.832 210.156,107.230 210.759,107.464 210.985 C 107.697 211.211,108.226 211.397,108.638 211.397 C 109.050 211.397,109.601 211.653,109.861 211.967 C 110.122 212.281,110.889 212.584,111.567 212.640 C 112.245 212.696,112.911 212.892,113.048 213.075 C 113.597 213.811,116.208 215.419,116.853 215.419 C 117.987 215.419,117.634 214.173,116.201 213.114 C 115.464 212.568,114.860 211.864,114.860 211.548 C 114.860 211.231,114.257 210.661,113.520 210.279 C 112.782 209.898,112.179 209.366,112.179 209.098 C 112.179 208.829,111.575 207.922,110.838 207.083 C 108.494 204.413,109.059 203.897,113.634 204.524 C 115.224 204.742,115.771 205.044,116.174 205.929 L 116.688 207.057 117.921 205.875 C 118.600 205.225,119.385 204.693,119.667 204.693 C 119.949 204.693,120.375 204.342,120.615 203.914 C 120.854 203.486,121.192 203.278,121.366 203.452 C 121.540 203.625,122.048 203.571,122.495 203.332 C 123.406 202.845,124.902 204.089,125.623 205.933 C 125.841 206.493,126.375 207.060,126.809 207.195 C 127.243 207.329,127.940 207.622,128.358 207.844 C 129.586 208.497,130.895 206.979,129.797 206.175 C 129.354 205.852,128.815 205.587,128.599 205.587 C 128.383 205.587,128.270 205.142,128.349 204.598 C 128.594 202.902,132.123 202.416,137.765 203.299 C 137.950 203.328,138.101 203.654,138.101 204.022 C 138.101 204.391,138.314 204.693,138.574 204.693 C 138.834 204.693,138.923 204.894,138.771 205.140 C 138.619 205.385,138.764 205.587,139.092 205.587 C 139.997 205.587,141.676 204.277,141.676 203.571 C 141.676 202.972,144.197 202.019,145.795 202.014 C 146.216 202.012,147.248 201.408,148.088 200.670 C 148.928 199.933,149.890 199.336,150.227 199.344 C 150.686 199.355,150.659 199.495,150.115 199.909 C 149.403 200.450,148.532 203.147,148.786 204.022 C 148.857 204.268,148.988 205.777,149.076 207.374 C 149.205 209.689,149.423 210.404,150.150 210.893 C 151.094 211.528,151.399 212.737,150.615 212.737 C 149.844 212.737,150.127 215.320,151.086 217.026 C 153.029 220.486,149.144 223.122,146.655 220.034 C 145.700 218.849,144.358 218.365,144.358 219.206 C 144.358 219.928,142.553 223.165,142.026 223.389 C 141.833 223.471,141.676 223.785,141.676 224.088 C 141.676 224.390,141.073 225.215,140.335 225.922 C 139.598 226.628,138.994 227.390,138.994 227.614 C 138.994 227.838,138.441 228.565,137.765 229.230 C 135.534 231.425,132.070 235.575,131.923 236.229 C 131.741 237.038,132.254 237.035,135.127 236.211 C 138.151 235.344,145.728 235.104,148.649 235.783 C 151.538 236.455,151.888 236.229,152.204 233.495 C 152.627 229.838,152.779 229.449,154.006 228.890 C 155.536 228.193,156.194 228.727,157.534 231.757 C 158.092 233.019,158.876 234.177,159.275 234.330 C 159.674 234.484,160.000 234.892,160.000 235.239 C 160.000 235.585,160.329 236.141,160.731 236.475 C 161.864 237.415,163.639 240.430,163.342 240.910 C 163.195 241.147,162.004 241.341,160.694 241.341 C 158.586 241.341,154.791 243.063,156.786 243.114 C 157.108 243.122,157.234 243.350,157.067 243.620 C 156.856 243.962,157.055 243.956,157.721 243.599 C 159.841 242.464,160.057 243.799,158.191 246.512 C 156.302 249.257,154.637 249.088,154.637 246.151 C 154.637 245.253,154.610 245.249,153.743 246.034 C 153.251 246.478,152.849 247.202,152.849 247.641 C 152.849 248.080,152.648 248.563,152.402 248.715 C 151.772 249.104,151.846 251.332,152.510 251.996 C 152.874 252.360,152.909 252.660,152.612 252.868 C 152.362 253.042,151.806 253.737,151.376 254.413 C 150.017 256.549,148.251 255.032,149.075 252.437 C 149.535 250.985,148.903 248.491,148.147 248.780 C 147.510 249.025,144.358 254.753,144.358 255.668 C 144.358 256.149,142.884 259.713,142.107 261.111 C 141.870 261.538,141.676 262.196,141.676 262.573 C 141.676 262.950,141.209 264.008,140.639 264.925 C 140.069 265.842,138.634 268.503,137.450 270.838 C 136.266 273.173,134.922 275.618,134.464 276.270 C 134.006 276.923,133.631 277.649,133.631 277.885 C 133.631 278.120,133.036 279.062,132.308 279.978 C 130.984 281.643,130.244 283.242,130.622 283.620 C 131.358 284.356,139.024 279.663,141.562 276.923 C 142.605 275.796,144.214 274.394,145.137 273.806 C 147.502 272.300,149.274 270.556,149.274 269.733 C 149.274 269.214,149.556 269.104,150.367 269.308 C 151.571 269.610,154.637 268.768,154.637 268.135 C 154.637 267.655,159.188 264.692,161.260 263.824 C 164.283 262.557,161.409 261.588,157.471 262.545 C 156.297 262.831,155.976 262.732,155.562 261.957 C 155.012 260.930,155.736 259.218,156.721 259.218 C 157.834 259.218,160.000 256.909,160.000 255.723 C 160.000 254.465,163.527 250.726,164.713 250.726 C 165.057 250.726,165.550 249.906,165.829 248.867 C 167.053 244.322,167.598 244.193,171.210 247.598 C 172.774 249.073,174.224 250.279,174.431 250.279 C 174.639 250.279,175.467 250.782,176.273 251.397 C 177.079 252.011,177.970 252.514,178.254 252.514 C 179.239 252.514,178.764 254.141,177.399 255.447 C 176.580 256.230,175.660 256.700,175.119 256.612 C 174.620 256.531,173.604 256.717,172.861 257.025 L 171.510 257.584 171.788 261.194 C 171.941 263.180,171.839 267.117,171.562 269.944 C 170.521 280.538,170.324 280.400,177.147 273.863 C 184.405 266.908,185.043 266.369,186.002 266.369 C 186.465 266.369,187.006 265.931,187.205 265.395 C 187.548 264.466,187.272 263.891,185.662 262.180 C 184.834 261.301,184.570 259.384,185.076 257.930 C 185.649 256.289,185.847 256.255,188.040 257.430 C 188.957 257.922,190.271 258.324,190.959 258.324 C 191.647 258.324,192.656 258.610,193.200 258.959 C 194.133 259.558,195.367 259.883,198.771 260.425 C 200.605 260.717,200.703 261.904,199.004 263.241 C 197.386 264.513,197.111 269.274,198.655 269.274 C 199.293 269.274,199.610 268.896,199.776 267.938 C 199.913 267.146,200.323 266.542,200.786 266.453 C 201.716 266.274,201.708 265.682,200.897 275.084 C 200.537 279.263,200.238 285.641,200.233 289.258 C 200.223 296.279,199.656 297.882,197.742 296.294 C 195.722 294.617,195.552 297.541,197.510 300.291 C 198.019 301.006,198.439 302.163,198.442 302.862 C 198.446 303.562,198.756 305.016,199.131 306.094 C 199.710 307.757,199.736 308.736,199.301 312.574 C 198.729 317.610,198.336 318.459,197.274 316.944 C 196.413 315.714,195.307 316.349,195.307 318.073 C 195.307 319.057,197.266 322.236,198.101 322.607 C 198.800 322.918,198.386 324.392,197.018 326.456 L 195.601 328.596 196.631 329.372 C 199.453 331.501,198.186 336.822,195.080 335.887 C 193.933 335.542,192.965 335.456,192.822 335.686 C 192.685 335.908,192.736 336.090,192.935 336.090 C 193.406 336.091,195.754 339.811,195.754 340.556 C 195.754 340.872,196.048 341.354,196.408 341.627 C 196.767 341.900,197.178 342.810,197.321 343.650 C 197.464 344.489,197.659 345.303,197.755 345.459 C 198.740 347.051,196.889 346.649,195.027 344.866 C 193.838 343.726,192.710 342.793,192.522 342.793 C 192.333 342.793,192.179 342.492,192.179 342.123 C 192.179 341.754,191.994 341.453,191.768 341.453 C 191.543 341.453,190.899 340.698,190.338 339.777 C 189.777 338.855,188.689 337.462,187.921 336.681 L 186.524 335.262 186.729 337.798 C 186.842 339.194,187.421 341.341,188.016 342.570 C 188.611 343.799,189.291 345.800,189.526 347.016 C 189.762 348.232,190.126 349.338,190.335 349.474 C 190.544 349.610,190.830 350.324,190.970 351.061 C 191.566 354.190,192.333 357.119,193.557 360.943 C 194.274 363.183,194.860 365.848,194.860 366.865 C 194.860 367.883,195.012 368.715,195.198 368.715 C 195.643 368.715,197.438 372.650,197.644 374.078 C 197.733 374.693,198.051 375.641,198.351 376.184 C 198.651 376.728,198.970 377.808,199.060 378.584 C 199.151 379.359,199.500 380.168,199.836 380.381 C 200.172 380.594,200.291 380.772,200.100 380.775 C 199.910 380.779,200.075 381.404,200.468 382.163 C 200.861 382.923,201.060 383.862,200.911 384.250 C 200.762 384.638,201.129 385.978,201.727 387.226 C 204.259 392.518,205.249 394.757,205.545 395.863 C 206.223 398.400,207.190 397.334,207.665 393.526 C 207.787 392.546,208.080 391.511,208.316 391.227 C 208.552 390.942,208.824 390.135,208.920 389.433 C 209.016 388.731,209.411 387.276,209.799 386.201 C 210.186 385.125,210.503 383.754,210.503 383.155 C 210.503 382.555,210.749 381.625,211.049 381.088 C 211.599 380.104,212.397 377.600,213.211 374.302 C 213.698 372.328,215.007 369.469,215.531 369.236 C 215.715 369.155,215.866 368.689,215.866 368.202 C 215.866 367.714,216.076 366.924,216.332 366.445 C 216.684 365.786,216.658 365.603,216.225 365.692 C 215.845 365.770,215.699 365.397,215.791 364.581 C 215.925 363.399,215.848 363.349,213.775 363.285 C 212.251 363.238,212.012 363.160,212.959 363.021 C 213.696 362.913,214.430 362.612,214.591 362.352 C 214.752 362.092,215.438 361.859,216.115 361.833 C 217.169 361.794,217.442 361.495,217.994 359.777 C 218.349 358.670,218.921 357.196,219.264 356.500 C 219.607 355.804,219.888 354.789,219.888 354.243 C 219.888 353.698,220.077 353.060,220.308 352.827 C 220.538 352.593,220.799 351.857,220.887 351.190 C 220.974 350.523,221.188 349.836,221.361 349.663 C 221.534 349.490,221.676 348.879,221.676 348.305 C 221.676 347.732,221.837 347.263,222.033 347.263 C 222.410 347.263,223.534 344.535,223.783 343.017 C 223.863 342.525,224.349 341.224,224.862 340.126 C 225.975 337.743,226.620 336.089,226.437 336.089 C 226.302 336.089,218.410 343.492,216.253 345.642 C 214.247 347.641,213.261 347.251,213.293 344.469 C 213.307 343.179,213.263 340.978,213.193 339.580 C 213.083 337.344,213.227 336.830,214.385 335.334 C 215.725 333.603,216.887 330.848,217.450 328.071 L 217.762 326.533 216.333 327.736 C 211.798 331.551,210.042 324.561,214.296 319.627 L 215.196 318.583 214.190 317.767 C 213.637 317.319,213.184 316.757,213.184 316.519 C 213.184 316.281,212.732 315.787,212.180 315.420 C 211.238 314.794,211.212 314.650,211.770 313.109 C 212.227 311.844,212.243 311.319,211.838 310.832 C 211.492 310.414,211.318 308.177,211.329 304.261 C 211.352 295.704,211.061 293.184,210.051 293.184 C 209.415 293.184,209.285 292.920,209.447 291.955 C 209.560 291.279,209.695 290.324,209.746 289.832 C 209.797 289.341,210.020 288.655,210.241 288.308 C 210.731 287.543,210.609 277.136,210.043 271.285 C 209.817 268.950,209.627 266.888,209.620 266.704 C 209.614 266.520,210.212 266.369,210.950 266.369 C 211.687 266.369,212.291 266.181,212.291 265.951 C 212.291 265.081,211.376 263.181,210.509 262.251 C 209.025 260.657,209.993 260.112,214.303 260.112 C 215.467 260.112,216.424 259.846,216.773 259.425 C 217.087 259.047,217.665 258.780,218.057 258.831 C 218.968 258.950,222.007 258.086,224.614 256.969 C 225.730 256.491,227.227 256.055,227.942 256.001 C 229.168 255.907,229.200 255.855,228.509 255.091 C 227.932 254.454,227.892 254.164,228.320 253.736 C 229.204 252.852,229.744 254.208,229.613 256.983 C 229.516 259.042,229.370 259.420,228.715 259.310 C 227.910 259.175,227.818 259.482,227.846 262.235 C 227.855 263.034,227.626 263.710,227.338 263.739 C 227.051 263.767,226.514 263.817,226.145 263.850 C 225.254 263.930,225.273 265.696,226.165 265.706 C 226.879 265.714,227.740 266.322,229.479 268.045 C 230.037 268.598,230.684 269.050,230.917 269.050 C 231.150 269.050,231.786 269.654,232.332 270.391 C 232.877 271.128,233.619 271.732,233.980 271.732 C 234.341 271.732,234.637 271.883,234.637 272.067 C 234.637 272.251,236.255 273.882,238.232 275.690 L 241.827 278.978 241.526 274.796 C 241.330 272.079,240.989 270.344,240.551 269.841 C 240.084 269.305,240.014 268.892,240.324 268.500 C 240.570 268.188,240.807 266.425,240.850 264.581 C 240.893 262.737,241.044 260.573,241.185 259.772 C 241.510 257.929,240.825 257.084,238.726 256.738 C 235.961 256.282,234.841 255.663,234.330 254.311 C 233.866 253.081,234.585 251.620,235.655 251.620 C 236.103 251.620,239.819 249.025,240.437 248.280 C 242.300 246.036,245.029 250.774,245.348 256.805 C 245.587 261.321,246.102 262.793,247.444 262.793 C 247.941 262.793,248.014 262.329,247.787 260.616 C 247.373 257.498,249.623 256.987,250.747 259.944 C 251.075 260.805,251.456 261.041,252.402 260.967 C 254.665 260.790,256.147 260.998,255.866 261.453 C 255.714 261.698,255.211 261.899,254.749 261.899 C 253.545 261.899,253.211 262.707,253.889 263.974 C 254.330 264.799,254.362 265.495,254.017 266.787 L 253.558 268.504 255.816 268.721 C 257.368 268.870,258.217 269.191,258.534 269.747 C 258.787 270.193,259.403 270.972,259.903 271.480 C 262.328 273.942,262.749 275.351,261.450 276.650 C 260.577 277.524,260.952 279.330,262.007 279.330 C 262.194 279.330,262.346 279.910,262.346 280.619 C 262.346 281.496,262.698 282.139,263.448 282.630 C 264.948 283.613,265.008 283.574,264.719 281.796 C 264.436 280.051,265.404 279.237,266.590 280.222 C 267.132 280.671,267.323 280.569,267.675 279.645 C 267.909 279.028,268.315 278.391,268.576 278.229 C 269.317 277.771,269.138 279.594,268.380 280.223 C 268.011 280.529,267.709 281.133,267.709 281.564 C 267.709 281.996,268.011 282.599,268.380 282.905 C 268.749 283.211,269.056 283.688,269.063 283.965 C 269.070 284.243,269.673 285.056,270.403 285.773 C 272.746 288.071,273.113 288.017,261.314 287.120 C 257.984 286.867,257.848 286.893,258.347 287.692 C 258.911 288.595,263.448 291.844,264.146 291.844 C 264.540 291.844,268.417 295.037,270.708 297.249 C 271.616 298.125,271.752 298.144,272.416 297.481 C 273.350 296.546,273.634 296.572,274.310 297.654 C 274.625 298.159,275.352 298.547,275.981 298.547 C 276.594 298.547,277.095 298.759,277.095 299.018 C 277.095 299.276,277.698 299.698,278.436 299.955 C 279.173 300.212,279.777 300.708,279.777 301.058 C 279.777 302.048,277.549 301.333,275.956 299.832 C 274.481 298.441,272.626 298.107,272.626 299.232 C 272.626 299.608,272.969 300.048,273.388 300.209 C 274.286 300.553,275.525 301.508,276.887 302.905 C 277.427 303.458,278.059 303.911,278.292 303.911 C 278.525 303.911,279.293 304.514,280.000 305.251 C 280.707 305.989,281.446 306.592,281.644 306.592 C 281.842 306.592,282.558 307.149,283.236 307.828 C 283.914 308.508,285.223 309.410,286.145 309.832 C 287.067 310.255,287.821 310.804,287.821 311.054 C 287.821 311.304,288.107 311.508,288.457 311.508 C 288.807 311.508,289.691 312.011,290.421 312.626 C 291.152 313.240,292.072 313.743,292.467 313.743 C 292.861 313.743,293.184 313.944,293.184 314.190 C 293.184 314.436,293.575 314.637,294.052 314.637 C 294.529 314.637,295.031 314.817,295.167 315.037 C 295.303 315.257,296.672 316.089,298.210 316.886 C 299.748 317.683,301.106 318.458,301.229 318.609 C 301.352 318.759,302.173 319.248,303.054 319.695 C 303.935 320.142,305.141 320.946,305.735 321.483 C 306.330 322.019,307.378 322.748,308.065 323.103 C 308.752 323.458,310.244 324.626,311.380 325.699 C 312.516 326.772,314.018 327.764,314.718 327.904 C 315.565 328.074,315.951 328.401,315.872 328.884 C 315.807 329.283,316.006 329.559,316.313 329.497 C 316.620 329.436,317.244 329.737,317.698 330.168 C 320.272 332.603,323.102 333.634,320.978 331.362 C 320.500 330.852,319.976 330.015,319.814 329.503 C 319.651 328.991,319.023 328.247,318.418 327.851 C 317.813 327.455,317.318 326.835,317.318 326.475 C 317.318 326.115,316.363 324.603,315.196 323.116 C 314.028 321.629,312.652 319.834,312.138 319.127 C 311.623 318.421,310.875 317.515,310.474 317.114 C 310.073 316.713,309.370 315.539,308.912 314.505 C 308.453 313.472,307.744 312.350,307.335 312.012 C 306.927 311.675,306.592 311.136,306.592 310.815 C 306.592 310.494,306.328 309.966,306.004 309.641 C 305.681 309.316,304.839 308.045,304.132 306.816 C 303.426 305.587,302.484 304.101,302.039 303.515 C 301.593 302.929,301.229 301.978,301.229 301.402 C 301.229 300.826,300.626 299.240,299.888 297.877 C 299.151 296.514,298.548 295.152,298.548 294.850 C 298.548 294.549,297.924 292.994,297.162 291.397 C 293.140 282.969,290.503 276.914,290.503 276.108 C 290.503 275.728,290.214 275.177,289.861 274.884 C 289.508 274.591,289.090 273.762,288.932 273.042 C 288.774 272.321,288.459 271.732,288.233 271.732 C 288.006 271.732,287.821 271.341,287.821 270.864 C 287.821 269.962,286.103 266.704,285.490 266.443 C 285.297 266.361,285.140 265.933,285.140 265.492 C 285.140 265.051,284.875 264.471,284.552 264.203 C 284.229 263.935,283.491 262.704,282.912 261.467 C 281.796 259.085,281.516 258.869,280.744 259.799 C 280.392 260.223,280.511 261.160,281.183 263.263 C 282.486 267.342,282.789 280.879,281.562 280.222 C 281.034 279.940,280.857 279.451,281.004 278.681 C 281.152 277.907,280.990 277.465,280.487 277.272 C 279.978 277.077,279.786 276.534,279.857 275.487 C 279.946 274.162,279.573 273.595,276.739 270.744 C 273.335 267.320,272.942 266.325,274.220 264.374 C 275.340 262.666,273.999 262.175,270.261 262.924 C 269.631 263.051,269.148 261.235,269.095 258.540 C 269.016 254.582,265.922 251.077,265.922 254.946 C 265.922 258.920,262.017 257.004,260.649 252.358 C 259.892 249.786,259.755 249.618,258.081 249.179 C 255.249 248.436,253.963 247.326,253.626 245.334 C 253.426 244.146,253.088 243.559,252.586 243.524 C 248.992 243.274,247.180 241.363,248.992 239.734 C 250.141 238.701,253.855 233.564,253.855 233.008 C 253.855 232.789,254.358 231.870,254.972 230.965 C 255.587 230.061,256.089 229.021,256.089 228.653 C 256.089 227.457,257.001 227.383,258.569 228.450 C 260.294 229.624,261.449 231.678,261.459 233.587 C 261.471 235.718,261.618 235.750,271.626 235.831 L 281.129 235.908 280.155 234.490 C 279.619 233.711,278.661 232.560,278.026 231.933 C 277.391 231.306,276.268 230.027,275.531 229.091 C 274.793 228.155,273.637 226.863,272.961 226.221 C 272.285 225.578,271.732 224.884,271.732 224.679 C 271.732 224.473,271.146 223.563,270.430 222.655 C 269.714 221.748,269.058 220.606,268.973 220.117 C 268.764 218.926,267.266 218.660,266.978 219.763 C 266.607 221.182,264.309 221.763,261.575 221.127 C 259.039 220.537,258.723 220.064,260.087 218.896 C 260.564 218.487,261.084 217.386,261.241 216.450 C 261.398 215.514,261.798 213.844,262.130 212.737 C 262.461 211.631,262.960 208.927,263.238 206.727 C 263.861 201.804,263.722 202.011,266.395 202.011 C 268.749 202.011,269.104 202.475,268.136 204.284 C 267.879 204.765,267.775 205.331,267.906 205.543 C 268.246 206.094,271.732 204.273,271.732 203.544 C 271.732 202.424,273.421 201.956,276.323 202.272 C 279.740 202.644,280.268 203.015,279.912 204.797 C 279.650 206.105,279.694 206.153,280.921 205.919 C 281.795 205.752,282.549 205.945,283.285 206.524 C 284.431 207.425,287.569 207.698,288.039 206.937 C 288.599 206.031,287.356 204.632,286.115 204.772 C 285.346 204.858,284.956 204.708,285.028 204.353 C 285.089 204.048,284.939 203.799,284.693 203.799 C 284.097 203.799,284.120 202.589,284.722 202.216 C 284.985 202.054,285.449 202.264,285.755 202.681 C 286.150 203.222,287.206 203.508,289.412 203.674 C 291.885 203.860,292.751 204.128,293.684 204.997 C 294.670 205.916,294.951 205.993,295.472 205.483 C 298.568 202.453,302.677 203.907,299.913 207.055 C 299.162 207.910,298.547 208.827,298.547 209.094 C 298.547 209.360,298.163 209.783,297.694 210.034 C 295.219 211.359,292.263 215.884,294.364 215.131 C 294.821 214.967,295.397 214.690,295.642 214.515 C 295.888 214.340,297.351 213.766,298.894 213.240 C 301.584 212.323,303.435 211.465,303.911 210.915 C 304.034 210.773,304.737 210.349,305.475 209.973 C 306.212 209.597,308.324 208.491,310.168 207.515 C 313.691 205.650,314.915 205.008,316.486 204.204 C 317.011 203.935,318.123 203.332,318.958 202.863 C 319.792 202.394,320.820 202.010,321.243 202.008 C 321.665 202.007,322.601 201.698,323.323 201.322 C 325.812 200.023,332.067 198.747,334.155 199.110 C 337.232 199.646,336.154 197.241,332.843 196.181 C 331.802 195.848,330.200 195.113,329.283 194.548 C 327.194 193.260,324.458 193.167,323.713 194.359 C 323.131 195.291,319.698 197.095,318.507 197.095 C 318.087 197.095,317.552 197.598,317.318 198.212 C 317.085 198.827,316.587 199.330,316.212 199.330 C 315.753 199.330,315.531 199.767,315.531 200.670 C 315.531 202.243,314.860 202.455,314.473 201.006 C 314.304 200.375,314.451 199.815,314.867 199.504 C 315.232 199.231,315.531 198.659,315.531 198.233 C 315.531 197.807,315.933 197.353,316.425 197.224 C 316.916 197.096,317.318 196.813,317.318 196.596 C 317.318 196.379,317.598 196.201,317.940 196.201 C 320.014 196.201,325.041 192.567,324.166 191.700 C 323.964 191.500,321.587 190.195,318.883 188.801 C 316.179 187.406,313.899 186.088,313.818 185.870 C 313.736 185.653,313.333 185.472,312.924 185.468 C 312.514 185.465,311.274 185.147,310.168 184.762 C 309.062 184.377,307.805 184.035,307.375 184.003 C 306.944 183.970,306.592 183.803,306.592 183.631 C 306.592 183.459,305.737 183.176,304.693 183.003 C 301.856 182.530,295.882 180.216,295.871 179.585 C 295.862 179.035,294.473 177.877,293.823 177.877 C 292.837 177.877,293.036 178.482,295.032 181.533 C 296.796 184.231,297.515 185.127,299.777 187.450 C 301.264 188.977,301.092 189.943,299.330 189.950 C 296.399 189.961,287.186 190.455,286.927 190.615 C 286.424 190.925,285.720 190.165,285.271 188.827 L 284.821 187.486 283.262 189.120 L 281.704 190.754 276.742 191.075 L 271.780 191.397 271.166 189.891 L 270.551 188.385 269.465 189.525 C 266.046 193.117,263.566 192.865,263.125 188.881 C 262.731 185.319,261.754 182.976,260.529 182.656 C 259.404 182.362,259.421 181.621,260.559 181.323 C 261.863 180.982,261.054 176.536,259.688 176.536 C 258.871 176.536,259.180 175.268,260.065 174.987 C 262.607 174.180,265.195 174.608,266.383 176.031 C 267.825 177.758,268.855 177.821,269.261 176.206 C 269.430 175.532,269.704 174.878,269.869 174.753 C 270.035 174.628,270.926 173.369,271.849 171.955 C 272.773 170.542,273.728 169.385,273.971 169.385 C 274.214 169.385,274.413 169.132,274.413 168.823 C 274.413 168.513,275.615 166.954,277.084 165.359 C 278.553 163.763,279.760 162.273,279.766 162.046 C 279.772 161.820,280.110 161.266,280.519 160.815 C 281.623 159.594,281.208 159.505,276.607 159.972 C 271.402 160.499,267.371 160.567,264.022 160.184 L 261.453 159.889 261.453 161.666 C 261.453 164.667,257.909 169.867,256.832 168.446 C 256.758 168.348,256.161 167.149,255.507 165.781 C 254.852 164.413,253.509 162.418,252.521 161.349 C 250.150 158.780,250.142 158.791,254.506 158.840 C 258.848 158.889,261.087 157.837,258.629 156.902 C 257.974 156.653,257.132 156.567,256.758 156.711 C 254.501 157.577,254.222 154.686,256.361 152.608 C 261.754 147.371,263.980 146.610,263.826 150.056 C 263.735 152.107,263.787 152.172,264.996 151.525 C 266.134 150.916,266.975 148.618,266.651 147.000 C 266.287 145.179,267.039 143.779,268.186 144.143 C 269.363 144.517,269.822 143.222,268.881 142.183 C 267.968 141.174,267.961 140.489,268.861 139.985 C 270.114 139.284,274.413 134.854,274.413 134.264 C 274.413 133.617,276.108 132.942,276.570 133.404 C 276.736 133.570,276.895 135.606,276.923 137.928 C 276.951 140.251,277.087 142.264,277.226 142.403 C 277.622 142.799,279.543 139.424,280.183 137.207 C 280.502 136.101,280.907 134.994,281.083 134.749 C 281.259 134.503,281.664 133.397,281.983 132.291 C 282.301 131.184,282.788 129.676,283.063 128.939 C 283.339 128.201,283.585 127.497,283.609 127.374 C 283.633 127.251,283.766 126.849,283.906 126.480 C 284.045 126.112,284.408 124.804,284.712 123.575 C 285.017 122.346,285.744 120.361,286.329 119.163 C 287.052 117.682,287.252 116.816,286.953 116.456 C 286.644 116.083,286.887 115.707,287.780 115.179 C 288.925 114.503,291.812 109.764,291.357 109.308 C 291.254 109.205,289.786 109.817,288.096 110.669 C 286.406 111.520,283.820 112.497,282.350 112.840 C 280.002 113.388,277.352 114.456,273.520 116.400 C 271.453 117.448,269.276 118.657,269.051 118.883 C 268.476 119.456,265.920 121.117,265.612 121.117 C 265.007 121.117,260.561 123.562,260.560 123.895 C 260.557 124.610,262.430 125.131,265.220 125.191 C 269.122 125.276,269.136 125.413,265.673 129.714 C 262.190 134.038,261.639 134.525,260.220 134.525 C 259.343 134.525,259.210 134.690,259.456 135.466 C 259.900 136.863,258.375 139.441,257.105 139.441 C 256.172 139.441,256.089 139.242,256.089 136.983 C 256.089 135.078,255.936 134.525,255.408 134.525 C 254.090 134.525,253.520 137.258,254.056 141.006 L 254.375 143.240 251.322 146.907 C 249.642 148.924,247.907 151.086,247.465 151.712 C 246.411 153.205,245.802 153.147,244.188 151.397 C 241.363 148.333,236.353 144.358,235.316 144.358 C 234.888 144.358,235.078 146.536,235.531 146.816 C 236.073 147.151,236.124 147.933,235.602 147.933 C 234.346 147.933,233.529 143.205,234.444 141.229 C 235.124 139.760,234.807 138.744,233.903 139.494 C 233.452 139.869,233.499 139.604,234.058 138.622 C 234.995 136.976,235.463 136.885,236.764 138.096 C 237.365 138.656,237.825 138.812,238.008 138.517 C 238.167 138.259,238.731 138.104,239.261 138.172 C 241.054 138.404,241.121 138.040,241.005 128.646 C 240.863 117.235,240.880 117.542,240.384 117.542 C 240.156 117.542,238.561 118.950,236.841 120.670 C 235.120 122.391,233.582 123.799,233.422 123.799 C 233.262 123.799,232.153 124.814,230.957 126.055 C 229.761 127.296,228.139 128.669,227.352 129.107 C 225.992 129.865,225.097 131.844,226.114 131.844 C 226.377 131.844,226.592 132.152,226.592 132.530 C 226.592 132.907,226.906 133.695,227.290 134.281 C 229.626 137.846,227.348 140.239,223.382 138.386 C 222.075 137.775,219.799 137.138,218.324 136.969 C 216.849 136.800,214.499 136.403,213.101 136.087 C 211.703 135.770,210.451 135.620,210.318 135.752 C 209.901 136.169,208.710 134.895,209.031 134.376 C 209.199 134.103,209.296 133.338,209.245 132.675 C 209.139 131.275,210.173 130.056,211.468 130.056 C 212.256 130.056,212.338 129.845,212.120 128.380 C 211.888 126.819,212.005 126.596,213.824 125.140 C 217.274 122.377,216.819 120.249,213.260 122.506 C 209.843 124.673,209.361 124.116,209.818 118.528 C 210.223 113.589,210.298 113.386,212.049 112.443 C 213.662 111.575,215.866 111.925,215.866 113.049 C 215.866 113.292,216.168 113.376,216.536 113.234 C 218.345 112.540,215.574 109.012,212.510 108.107 C 210.783 107.597,210.503 107.348,210.503 106.326 C 210.503 105.151,209.614 103.999,208.874 104.213 C 208.310 104.376,206.480 103.279,206.480 102.778 C 206.480 101.955,208.677 102.334,209.162 103.240 C 209.997 104.800,210.590 104.250,210.486 102.011 C 210.432 100.844,210.413 99.405,210.445 98.814 C 210.513 97.550,213.826 94.302,215.046 94.302 C 216.935 94.302,215.367 91.993,213.117 91.459 C 211.602 91.100,210.993 89.406,211.286 86.360 C 211.461 84.537,212.737 81.903,212.737 83.364 C 212.737 83.776,215.399 79.909,215.411 79.481 C 215.421 79.113,214.214 79.268,213.793 79.689 C 212.950 80.533,211.291 80.003,211.616 78.994 C 211.794 78.441,212.018 75.785,212.113 73.091 C 212.300 67.793,212.747 66.698,214.494 67.253 C 215.086 67.440,215.556 68.060,215.717 68.863 C 215.860 69.580,216.266 70.168,216.619 70.168 C 216.971 70.168,217.146 69.984,217.007 69.759 C 216.868 69.534,216.984 69.273,217.265 69.180 C 219.393 68.471,216.479 61.936,214.157 62.208 C 212.928 62.352,212.086 60.098,212.614 58.079 C 212.726 57.650,212.589 56.871,212.309 56.348 C 211.905 55.593,211.943 55.256,212.493 54.706 C 212.932 54.267,213.212 53.087,213.259 51.476 C 213.419 46.048,213.496 45.587,214.235 45.587 C 215.750 45.587,223.355 52.367,225.787 55.885 C 227.182 57.905,226.766 55.285,225.344 53.095 C 224.657 52.038,223.828 50.369,223.501 49.385 C 223.174 48.402,222.500 46.693,222.004 45.587 C 220.481 42.196,218.985 37.597,218.687 35.393 C 218.531 34.239,217.832 31.950,217.135 30.304 C 216.437 28.658,215.866 26.882,215.866 26.356 C 215.866 25.830,215.293 23.959,214.592 22.197 C 213.892 20.436,213.181 18.112,213.013 17.033 C 212.845 15.955,212.211 13.988,211.605 12.662 C 210.999 11.337,210.503 9.840,210.503 9.335 C 210.503 8.831,209.899 7.043,209.162 5.363 C 208.425 3.683,207.821 1.789,207.821 1.154 C 207.821 -1.212,205.057 -0.451,203.883 2.239 M207.821 49.385 C 207.821 49.754,207.520 50.056,207.151 50.056 C 206.782 50.056,206.480 49.754,206.480 49.385 C 206.480 49.017,206.782 48.715,207.151 48.715 C 207.520 48.715,207.821 49.017,207.821 49.385 M209.385 51.397 C 209.537 51.642,209.360 51.844,208.991 51.844 C 208.623 51.844,208.197 51.642,208.045 51.397 C 207.893 51.151,208.070 50.950,208.439 50.950 C 208.808 50.950,209.234 51.151,209.385 51.397 M207.392 54.089 C 207.728 54.297,208.546 54.358,209.210 54.225 L 210.418 53.983 209.455 56.022 C 208.489 58.065,207.821 58.655,207.821 57.464 C 207.821 57.115,207.337 56.253,206.746 55.550 C 205.633 54.228,205.418 53.591,205.570 52.067 C 205.645 51.320,205.751 51.381,206.220 52.443 C 206.529 53.141,207.056 53.882,207.392 54.089 M206.209 101.266 C 206.376 101.702,206.277 101.906,205.950 101.797 C 205.282 101.574,204.914 100.559,205.502 100.559 C 205.742 100.559,206.060 100.877,206.209 101.266 M137.654 115.259 C 137.654 115.479,137.352 115.774,136.983 115.916 C 136.575 116.073,136.313 115.917,136.313 115.517 C 136.313 115.156,136.615 114.860,136.983 114.860 C 137.352 114.860,137.654 115.040,137.654 115.259 M212.097 145.983 C 212.711 146.385,214.016 146.714,214.998 146.714 C 215.979 146.714,216.890 146.888,217.021 147.100 C 217.152 147.312,218.012 147.486,218.931 147.486 C 219.851 147.486,220.794 147.670,221.028 147.895 C 221.261 148.120,221.955 148.372,222.570 148.454 C 224.056 148.653,223.995 149.785,222.458 150.521 C 221.571 150.947,221.227 151.445,221.222 152.315 C 221.212 154.221,220.209 155.771,219.066 155.646 C 218.367 155.569,217.952 155.864,217.652 156.651 C 217.137 158.007,216.751 158.045,215.720 156.841 C 214.834 155.806,212.379 155.995,211.710 157.149 C 211.371 157.733,208.268 158.055,208.268 157.507 C 208.268 157.365,208.994 155.740,209.881 153.896 L 211.493 150.543 210.551 149.883 C 209.359 149.048,209.331 147.933,210.503 147.933 C 211.428 147.933,211.736 146.855,210.950 146.369 C 210.482 146.080,210.328 145.251,210.742 145.251 C 210.874 145.251,211.483 145.580,212.097 145.983 M200.906 148.362 L 199.656 150.166 200.837 151.949 C 202.549 154.536,202.717 158.056,201.117 157.834 C 198.912 157.529,196.391 157.548,194.514 157.884 C 192.345 158.273,191.538 157.451,192.735 156.073 C 194.368 154.192,193.960 151.167,192.151 151.741 C 191.659 151.897,191.000 151.612,190.426 150.996 C 189.337 149.827,189.218 148.827,190.168 148.827 C 190.536 148.827,190.838 148.626,190.838 148.380 C 190.838 148.134,191.743 147.933,192.849 147.933 C 194.339 147.933,194.860 147.759,194.860 147.263 C 194.860 146.756,195.433 146.585,197.207 146.561 C 198.497 146.543,199.955 146.365,200.447 146.165 C 202.019 145.523,202.217 146.471,200.906 148.362 M185.028 152.516 C 185.028 153.010,184.609 153.778,184.096 154.223 C 182.864 155.292,183.144 156.516,184.659 156.676 C 185.316 156.746,186.246 157.196,186.726 157.675 C 187.205 158.155,187.862 158.635,188.184 158.743 C 188.894 158.979,186.115 161.788,185.171 161.788 C 184.831 161.788,184.437 162.089,184.296 162.458 C 184.154 162.827,183.734 163.128,183.363 163.128 C 182.706 163.128,180.133 165.698,180.119 166.369 C 180.081 168.124,178.771 166.330,178.771 164.523 C 178.771 162.173,178.818 162.215,174.972 161.058 C 173.302 160.555,172.757 158.299,174.213 157.918 C 174.693 157.793,175.320 157.250,175.609 156.711 C 175.897 156.173,176.726 155.335,177.450 154.850 C 178.175 154.364,178.769 153.816,178.770 153.631 C 178.770 153.447,179.280 153.296,179.902 153.296 C 180.525 153.296,181.149 152.994,181.291 152.626 C 181.432 152.257,181.907 151.955,182.346 151.955 C 182.785 151.955,183.269 151.631,183.421 151.235 C 183.795 150.262,185.028 151.245,185.028 152.516 M231.376 152.796 C 231.679 153.194,231.938 153.721,231.953 153.966 C 231.967 154.212,232.754 154.771,233.702 155.207 C 234.650 155.644,235.978 156.514,236.655 157.140 C 237.331 157.767,238.374 158.466,238.973 158.694 C 240.906 159.429,240.193 161.087,237.871 161.255 C 236.058 161.386,235.952 161.326,235.689 160.009 C 235.375 158.437,234.672 158.447,233.861 160.035 C 233.099 161.529,233.160 163.375,233.998 164.213 C 236.589 166.805,233.520 167.722,230.779 165.175 C 229.582 164.063,228.400 163.148,228.152 163.141 C 227.904 163.134,227.468 162.755,227.182 162.298 C 226.897 161.841,226.044 161.343,225.287 161.191 C 222.789 160.692,223.871 158.659,226.634 158.659 C 228.639 158.659,229.031 157.916,228.144 155.793 C 226.716 152.375,229.260 150.016,231.376 152.796 M169.743 164.559 C 170.374 165.190,170.462 166.704,169.867 166.704 C 169.303 166.704,168.351 169.715,168.660 170.521 C 169.024 171.470,170.173 171.319,170.502 170.280 C 170.896 169.041,172.594 168.726,174.254 169.584 C 175.821 170.394,176.082 171.589,174.768 171.933 C 174.272 172.062,173.676 172.819,173.392 173.678 C 173.117 174.513,172.726 175.196,172.523 175.196 C 172.320 175.196,171.944 175.799,171.687 176.536 C 171.430 177.274,171.008 177.877,170.750 177.877 C 170.152 177.877,170.134 176.679,170.726 176.313 C 172.187 175.410,171.061 174.749,168.066 174.749 C 162.661 174.749,161.500 173.465,164.022 170.279 C 164.760 169.348,165.363 168.401,165.363 168.173 C 165.363 167.513,168.187 164.022,168.721 164.022 C 168.988 164.022,169.448 164.264,169.743 164.559 M202.490 165.224 C 203.274 167.286,202.846 170.503,201.788 170.503 C 201.010 170.503,200.876 170.160,200.758 167.871 C 200.559 164.013,201.489 162.591,202.490 165.224 M210.659 171.553 C 210.591 178.899,210.348 180.044,208.969 179.515 C 207.774 179.056,207.951 169.993,209.162 169.609 C 210.214 169.275,210.278 168.599,209.371 167.401 C 208.287 165.967,208.502 163.930,209.721 164.103 C 210.720 164.245,210.726 164.292,210.659 171.553 M245.922 167.542 C 246.352 167.928,246.704 168.500,246.704 168.814 C 246.704 169.128,246.855 169.386,247.039 169.386 C 247.807 169.387,249.837 173.743,249.270 174.175 C 247.997 175.147,245.650 175.832,245.467 175.284 C 245.102 174.188,243.128 174.665,243.128 175.849 C 243.128 178.533,240.718 179.240,240.241 176.695 C 240.056 175.711,239.411 174.598,238.626 173.909 C 236.389 171.946,238.720 168.877,241.371 170.295 C 242.949 171.140,243.575 170.526,243.575 168.133 C 243.575 165.709,244.015 164.895,244.692 166.066 C 244.938 166.492,245.492 167.156,245.922 167.542 M202.209 173.954 C 203.164 175.318,203.184 180.112,202.235 180.112 C 201.566 180.112,201.303 178.679,201.481 176.003 C 201.525 175.341,201.360 174.675,201.116 174.524 C 200.550 174.175,200.532 172.961,201.092 172.961 C 201.324 172.961,201.827 173.408,202.209 173.954 M161.858 179.268 C 162.758 179.909,163.577 180.134,164.406 179.968 C 165.812 179.687,166.962 180.226,166.511 180.956 C 166.342 181.229,165.838 181.453,165.391 181.453 C 164.318 181.453,163.298 182.620,164.115 182.913 C 164.433 183.026,164.997 182.964,165.368 182.774 C 168.043 181.407,169.417 185.350,167.317 188.368 C 166.980 188.852,166.704 189.796,166.704 190.464 C 166.704 192.817,165.448 192.701,164.958 190.302 C 164.515 188.135,163.190 188.328,162.034 190.726 C 161.107 192.649,157.728 193.632,157.226 192.125 C 157.042 191.572,157.886 186.091,158.320 185.028 C 158.470 184.659,158.693 183.754,158.816 183.017 C 159.063 181.532,160.130 178.324,160.376 178.324 C 160.462 178.324,161.129 178.749,161.858 179.268 M252.167 180.000 C 252.543 180.430,252.996 181.788,253.172 183.017 C 253.349 184.246,253.766 185.908,254.100 186.710 C 254.740 188.245,255.100 191.977,254.652 192.425 C 254.292 192.784,250.726 190.929,250.726 190.382 C 250.726 189.465,249.089 190.000,247.961 191.285 C 246.067 193.443,244.916 193.115,244.916 190.417 C 244.916 189.203,244.742 188.102,244.530 187.970 C 244.317 187.839,244.032 187.073,243.897 186.268 C 243.762 185.463,243.500 184.421,243.316 183.953 C 242.841 182.751,246.199 183.306,248.871 184.872 C 251.320 186.308,252.010 185.856,251.248 183.314 C 250.242 179.956,250.695 178.320,252.167 180.000 M169.385 180.708 C 169.385 181.548,168.955 181.878,168.224 181.597 C 167.274 181.233,167.475 180.112,168.492 180.112 C 168.983 180.112,169.385 180.380,169.385 180.708 M313.296 201.117 C 313.296 202.060,312.646 202.320,312.179 201.564 C 311.853 201.037,312.276 200.223,312.876 200.223 C 313.107 200.223,313.296 200.626,313.296 201.117 M161.270 202.064 C 161.706 202.761,161.993 202.879,162.361 202.511 C 163.233 201.639,164.829 201.926,165.174 203.017 C 165.348 203.570,165.865 204.285,166.321 204.606 C 166.777 204.928,167.151 205.670,167.151 206.256 C 167.151 206.842,167.352 207.446,167.598 207.598 C 168.303 208.034,168.119 209.609,167.363 209.609 C 166.988 209.609,166.483 210.132,166.240 210.772 C 165.910 211.638,165.600 211.853,165.022 211.615 C 163.326 210.916,162.794 210.907,162.539 211.570 C 162.393 211.950,162.466 212.381,162.701 212.526 C 163.878 213.254,163.008 216.121,161.349 216.979 C 160.038 217.657,159.106 216.651,159.106 214.559 C 159.106 214.109,158.827 213.509,158.486 213.226 C 157.869 212.714,157.416 209.541,157.240 204.483 C 157.127 201.251,159.771 199.664,161.270 202.064 M246.680 201.759 C 247.068 202.226,247.083 202.644,246.735 203.294 C 246.035 204.602,246.105 204.693,247.821 204.693 C 249.325 204.693,251.173 203.469,251.173 202.474 C 251.173 201.612,252.853 201.098,254.109 201.576 C 255.394 202.065,255.458 204.187,254.324 208.715 C 254.109 209.575,253.697 211.385,253.408 212.737 C 252.590 216.576,252.507 216.760,251.590 216.760 C 251.115 216.760,250.726 216.591,250.726 216.385 C 250.726 216.178,250.229 215.783,249.621 215.506 C 249.014 215.229,248.388 214.493,248.232 213.870 C 247.972 212.835,247.742 212.737,245.565 212.737 C 243.020 212.737,242.280 212.287,243.357 211.393 C 243.723 211.089,244.022 210.402,244.022 209.867 C 244.022 209.332,244.250 208.667,244.528 208.389 C 244.817 208.100,245.005 206.613,244.968 204.914 C 244.887 201.153,245.397 200.213,246.680 201.759 M310.968 202.743 C 310.566 203.145,309.920 203.352,309.532 203.204 C 308.317 202.737,308.762 202.011,310.263 202.011 C 311.594 202.011,311.646 202.065,310.968 202.743 M192.303 206.932 C 193.727 208.596,190.489 212.467,188.077 211.984 C 186.823 211.733,186.815 211.746,186.764 214.134 C 186.685 217.816,186.668 217.868,185.460 218.009 C 184.808 218.085,184.146 218.557,183.896 219.124 C 183.272 220.543,181.991 220.633,181.481 219.294 C 181.250 218.685,180.847 218.055,180.586 217.894 C 179.395 217.158,180.295 215.607,184.022 211.969 C 189.876 206.256,191.091 205.517,192.303 206.932 M220.522 207.199 C 220.911 207.348,221.229 207.750,221.229 208.093 C 221.229 208.802,222.041 208.895,222.990 208.294 C 223.663 207.868,226.145 208.855,226.145 209.548 C 226.145 209.748,227.052 210.798,228.160 211.883 C 229.796 213.484,230.129 214.071,229.930 215.001 C 229.766 215.771,229.992 216.537,230.617 217.332 C 231.500 218.454,231.510 218.577,230.807 219.649 C 229.351 221.871,226.233 219.858,226.841 217.089 C 227.546 213.879,226.100 211.631,224.688 213.743 L 224.016 214.749 222.414 212.961 C 221.534 211.978,220.520 210.836,220.161 210.425 C 218.091 208.049,218.282 206.339,220.522 207.199 M197.770 211.410 C 197.966 212.027,197.729 212.658,197.029 213.385 C 195.812 214.649,195.307 214.478,195.307 212.800 C 195.307 210.699,197.204 209.627,197.770 211.410 M216.648 214.301 C 217.794 216.069,217.854 216.313,217.147 216.313 C 216.504 216.313,214.526 214.037,214.526 213.296 C 214.525 212.226,215.649 212.759,216.648 214.301 M209.940 214.190 C 211.756 216.496,211.316 228.827,209.418 228.827 C 208.213 228.827,207.753 224.974,208.904 224.532 C 209.956 224.129,210.107 223.000,209.255 221.916 C 208.683 221.189,208.419 219.970,208.341 217.697 C 208.208 213.807,208.732 212.657,209.940 214.190 M194.267 215.319 C 195.206 215.917,186.767 224.449,185.802 223.878 C 184.571 223.149,187.429 219.274,188.920 219.648 C 189.765 219.860,189.944 219.726,189.944 218.879 C 189.944 216.423,192.584 214.249,194.267 215.319 M202.788 223.711 C 202.715 231.522,202.379 233.252,201.205 231.838 C 199.854 230.210,201.210 215.866,202.715 215.866 C 202.796 215.866,202.829 219.396,202.788 223.711 M242.682 218.735 C 242.682 219.408,242.361 219.868,241.788 220.018 C 240.586 220.332,240.661 221.056,241.987 221.925 C 242.975 222.572,243.203 222.575,244.334 221.957 C 245.023 221.581,246.020 221.038,246.550 220.751 C 248.717 219.579,250.526 222.217,248.939 224.236 C 248.447 224.861,248.045 225.616,248.045 225.915 C 248.045 226.214,247.441 227.291,246.704 228.309 C 245.966 229.327,245.363 230.326,245.363 230.530 C 245.363 230.734,244.881 231.319,244.292 231.831 C 243.703 232.343,243.026 233.112,242.787 233.539 C 242.471 234.103,242.038 234.237,241.206 234.029 C 239.754 233.664,239.228 232.161,240.183 231.106 C 241.535 229.612,241.064 228.976,238.124 228.324 C 234.111 227.434,233.470 226.796,234.654 224.868 C 235.412 223.635,235.770 223.416,236.671 223.639 C 237.273 223.789,238.268 224.035,238.883 224.186 C 240.434 224.569,240.369 223.372,238.771 222.114 L 237.542 221.146 238.681 220.182 C 239.307 219.652,240.060 218.657,240.355 217.972 C 241.012 216.442,242.682 216.989,242.682 218.735 M171.702 219.218 C 172.514 219.901,173.586 220.335,174.462 220.335 C 175.687 220.335,175.909 220.506,175.992 221.513 C 176.046 222.161,176.592 223.157,177.207 223.726 C 178.590 225.008,178.622 225.886,177.318 226.800 C 176.372 227.465,176.299 227.448,176.077 226.523 C 175.512 224.171,173.795 225.493,172.988 228.902 C 172.184 232.299,171.788 232.868,170.971 231.799 C 170.186 230.772,169.385 231.203,169.385 232.652 C 169.385 233.922,168.609 234.105,168.142 232.946 C 167.966 232.508,167.458 231.653,167.014 231.047 C 165.455 228.916,162.235 223.774,162.235 223.415 C 162.235 221.904,165.026 220.829,166.117 221.919 C 167.078 222.880,167.794 222.513,167.970 220.971 C 168.284 218.225,169.720 217.551,171.702 219.218 M182.204 230.620 C 182.360 233.296,182.479 233.743,183.037 233.743 C 186.775 233.743,189.443 237.314,186.232 238.019 C 185.125 238.262,184.991 238.453,185.239 239.438 C 185.396 240.064,185.287 241.603,184.996 242.858 C 184.143 246.547,184.221 246.408,183.433 245.620 C 183.046 245.233,182.482 244.916,182.180 244.916 C 181.544 244.916,176.607 241.397,175.699 240.297 C 175.362 239.888,174.708 239.553,174.247 239.553 C 173.613 239.553,173.408 239.226,173.408 238.212 C 173.408 237.029,173.561 236.872,174.713 236.872 C 175.794 236.872,176.068 236.646,176.307 235.557 C 176.543 234.481,176.854 234.217,178.019 234.104 C 178.980 234.011,179.396 233.758,179.301 233.323 C 179.224 232.969,179.496 231.802,179.906 230.729 C 180.831 228.306,182.065 228.247,182.204 230.620 M230.639 234.333 L 231.335 237.095 233.382 237.095 C 235.022 237.095,235.612 237.317,236.350 238.212 L 237.270 239.330 235.705 240.782 C 234.844 241.581,234.053 242.235,233.945 242.235 C 233.838 242.235,232.829 242.939,231.701 243.799 C 228.466 246.269,225.765 244.357,228.901 241.817 C 230.281 240.700,229.713 239.553,227.778 239.553 C 225.059 239.553,223.855 236.256,225.942 234.523 C 226.606 233.971,227.678 232.996,228.324 232.355 C 229.768 230.923,229.784 230.937,230.639 234.333 M179.851 234.068 C 179.119 234.799,179.135 234.854,180.154 235.102 C 181.148 235.343,181.757 234.821,181.868 233.631 C 181.926 233.009,180.628 233.290,179.851 234.068 M202.368 240.709 C 202.532 242.946,201.559 244.066,200.193 243.213 C 197.794 241.715,198.724 245.292,201.409 247.885 C 203.818 250.212,199.904 251.729,195.116 250.323 C 190.448 248.953,189.721 248.657,189.721 248.128 C 189.721 247.614,190.742 246.906,193.073 245.806 C 194.075 245.332,193.883 244.509,192.626 243.885 C 190.297 242.730,191.306 239.573,194.012 239.550 C 194.847 239.543,196.318 239.533,197.280 239.526 C 198.242 239.520,199.349 239.325,199.738 239.092 C 201.263 238.180,202.227 238.773,202.368 240.709 M212.855 239.444 C 213.534 239.561,214.199 239.834,214.334 240.052 C 214.794 240.796,215.866 240.448,215.866 239.553 C 215.866 238.957,216.164 238.659,216.760 238.659 C 217.251 238.659,217.654 238.835,217.654 239.050 C 217.654 239.265,218.246 239.560,218.970 239.705 C 220.665 240.044,221.379 241.416,221.420 244.418 C 221.448 246.511,221.588 246.875,222.487 247.208 C 223.732 247.668,223.374 248.492,221.928 248.492 C 221.358 248.492,220.641 248.793,220.335 249.162 C 220.025 249.536,219.051 249.832,218.135 249.832 C 217.231 249.832,216.301 250.015,216.067 250.239 C 215.670 250.619,212.466 250.914,210.147 250.784 C 209.206 250.731,209.149 250.588,209.456 249.050 C 209.640 248.128,209.768 246.872,209.740 246.258 C 209.712 245.645,209.888 245.020,210.129 244.871 C 210.391 244.709,210.194 243.985,209.644 243.082 C 208.008 240.398,208.705 238.217,210.950 238.999 C 211.318 239.127,212.176 239.328,212.855 239.444 M231.494 262.038 C 231.468 263.021,230.365 264.085,229.760 263.711 C 229.297 263.425,229.335 263.116,229.946 262.183 C 230.692 261.044,231.523 260.966,231.494 262.038 M146.639 263.373 C 146.065 263.946,145.483 263.503,145.908 262.816 C 146.072 262.550,146.412 262.458,146.662 262.613 C 146.967 262.802,146.960 263.052,146.639 263.373 M281.110 282.625 C 281.114 282.839,280.818 282.766,280.452 282.462 C 280.086 282.158,279.910 281.710,280.061 281.466 C 280.338 281.018,281.097 281.856,281.110 282.625 M280.540 286.463 C 280.265 287.191,279.957 287.704,279.855 287.602 C 279.536 287.283,280.219 285.140,280.640 285.140 C 280.860 285.140,280.815 285.735,280.540 286.463 M292.652 294.860 C 292.471 295.802,291.678 295.743,291.476 294.772 C 291.391 294.367,291.638 294.078,292.067 294.078 C 292.527 294.078,292.747 294.371,292.652 294.860 M208.076 295.307 C 208.013 295.747,207.495 296.158,206.894 296.246 L 205.824 296.403 206.934 295.479 C 208.291 294.350,208.213 294.362,208.076 295.307 M287.821 297.207 C 287.821 297.703,287.523 298.101,287.151 298.101 C 286.343 298.101,286.287 297.579,287.017 296.849 C 287.738 296.128,287.821 296.165,287.821 297.207 M282.604 300.274 C 282.454 300.847,282.675 301.182,283.316 301.349 C 284.420 301.638,284.533 302.364,283.534 302.747 C 283.059 302.930,282.744 302.722,282.588 302.125 C 282.459 301.632,282.076 301.229,281.736 301.229 C 280.965 301.229,280.918 300.043,281.676 299.737 C 282.670 299.336,282.825 299.426,282.604 300.274 M286.816 303.438 C 287.901 304.344,288.142 305.251,287.298 305.251 C 286.556 305.251,285.140 303.886,285.140 303.171 C 285.140 302.360,285.614 302.436,286.816 303.438 M296.643 310.273 C 296.948 310.517,297.087 310.894,296.952 311.112 C 296.495 311.851,295.525 311.513,294.762 310.349 C 293.958 309.121,295.143 309.073,296.643 310.273 M211.397 364.078 C 211.397 365.434,210.811 366.243,210.489 365.330 C 210.310 364.822,209.747 364.455,209.115 364.434 C 206.294 364.341,205.587 364.211,205.587 363.784 C 205.587 363.502,206.719 363.363,208.492 363.429 C 210.411 363.499,211.397 363.720,211.397 364.078 " stroke="none" fill="url(#skyGradient)" fill-rule="evenodd"></path></g></svg>